<?xml version="1.0" encoding="utf-8"?>
<!-- Generator: Adobe Illustrator 21.0.2, SVG Export Plug-In . SVG Version: 6.00 Build 0)  -->
<svg version="1.1" id="Layer_1" xmlns="http://www.w3.org/2000/svg" xmlns:xlink="http://www.w3.org/1999/xlink" x="0px" y="0px"
	 viewBox="0 0 91 91" style="enable-background:new 0 0 91 91;" xml:space="preserve">
<style type="text/css">
	.st0{fill:#D22425;}
</style>
<g>
	<g>
		<g id="XMLID_1_">
			<g>
				<path class="st0" d="M68.3,23.3v44.4c0,3.4-2.7,6.1-6.1,6.1H28.8c-3.4,0-6.1-2.7-6.1-6.1V23.3c0-3.4,2.7-6.1,6.1-6.1h33.4
					C65.6,17.2,68.3,19.9,68.3,23.3z M64.9,67.3c0-11.1,0-40.6,0-40.6c0-5.7-0.6-6.1-6.1-6.1H32.2c-5.7,0-6.1,0.5-6.1,6.1
					c0,0,0,38.5,0,40.6c0,2.1,0.9,3.1,3,3.1c1.4,0,23.9,0,32.8,0C63.6,70.4,64.9,69.1,64.9,67.3z"/>
				<rect x="32" y="63.1" class="st0" width="27.4" height="3.4"/>
				<rect x="32" y="56.8" class="st0" width="27.4" height="3.4"/>
				<path class="st0" d="M59,52.9c0,0-0.7,0-3,0c0-5.3-4.7-9.7-10.5-9.7c2.1,0,4-0.7,5.5-1.9C55.7,43.3,59,47.8,59,52.9z"/>
				<path class="st0" d="M45.5,40.2c2,0,3.8,0.4,5.5,1.1c-1.5,1.2-3.4,1.9-5.5,1.9s-4-0.7-5.5-1.9C41.7,40.6,43.5,40.2,45.5,40.2z"
					/>
				<path class="st0" d="M45.5,25c5,0,9.1,4.1,9.1,9.1c0,2.9-1.4,5.6-3.6,7.2c-1.7-0.7-3.5-1.1-5.5-1.1c3.4,0,6.1-2.7,6.1-6.1
					c0-3.4-2.7-6.1-6.1-6.1s-6.1,2.7-6.1,6.1c0,3.4,2.7,6.1,6.1,6.1c-2,0-3.8,0.4-5.5,1.1c-2.2-1.7-3.6-4.3-3.6-7.2
					C36.4,29.1,40.5,25,45.5,25z"/>
				<path class="st0" d="M40,41.3c1.5,1.2,3.4,1.9,5.5,1.9c-5.8,0-10.5,4.3-10.5,9.7c0,0-0.5,0-3,0C32,47.8,35.3,43.3,40,41.3z"/>
			</g>
			<g>
			</g>
		</g>
	</g>
</g>
</svg>
