<?xml version="1.0" encoding="utf-8"?>
<!-- Generator: Adobe Illustrator 19.0.0, SVG Export Plug-In . SVG Version: 6.00 Build 0)  -->
<svg version="1.1" id="Layer_1" xmlns="http://www.w3.org/2000/svg" xmlns:xlink="http://www.w3.org/1999/xlink" x="0px" y="0px"
	 viewBox="-337 375.9 91 91" style="enable-background:new -337 375.9 91 91;" xml:space="preserve">
<style type="text/css">
	.st0{fill:#010101;}
	.st1{fill:none;stroke:#000000;stroke-width:3;stroke-miterlimit:10;}
</style>
<image style="overflow:visible;" width="53" height="53" xlink:href="C:\Users\Sho\AppData\Local\Temp\Rar$DRa0.402\Locify_assets\Splash_icon_1@2x.png"  transform="matrix(1 0 0 1 -150.9333 320.49)">
</image>
<g>
	<path class="st0" d="M-274.8,449.7c3.4,0,6.1-2.7,6.1-6.1l0-44.4c0-3.4-2.7-6.1-6.1-6.1h-33.4c-3.4,0-6.1,2.7-6.1,6.1v44.4
		c0,3.4,2.7,6.1,6.1,6.1L-274.8,449.7z M-310.9,443.2c0-2.1,0-40.6,0-40.6c0-5.6,0.4-6.1,6.1-6.1h26.6c5.5,0,6.1,0.4,6.1,6.1
		c0,0,0,29.5,0,40.6c0,1.8-1.3,3.1-3,3.1c-8.9,0-31.4,0-32.8,0C-310,446.3-310.9,445.3-310.9,443.2z"/>
	<rect x="-305" y="432.7" class="st0" width="27.4" height="3.4"/>
	<rect x="-305" y="439" class="st0" width="27.4" height="3.4"/>
	<g>
		<path d="M-291.5,419.1c-5,0-9.1-4.1-9.1-9.1s4.1-9.1,9.1-9.1c5,0,9.1,4.1,9.1,9.1S-286.5,419.1-291.5,419.1z M-291.5,403.9
			c-3.4,0-6.1,2.7-6.1,6.1s2.7,6.1,6.1,6.1s6.1-2.7,6.1-6.1S-288.1,403.9-291.5,403.9z"/>
		<path d="M-305,428.8c0-7,6.1-12.7,13.5-12.7c7.4,0,13.5,5.7,13.5,12.7c0,0-0.7,0-3,0c0-5.3-4.7-9.7-10.5-9.7
			c-5.8,0-10.5,4.3-10.5,9.7C-302,428.8-302.5,428.8-305,428.8z"/>
	</g>
</g>
<g>
	<circle class="st1" cx="-69.5" cy="338.7" r="15.1"/>
	<ellipse class="st1" cx="-69.5" cy="375.9" rx="23.8" ry="22.1"/>
</g>
</svg>
