<?xml version="1.0" encoding="utf-8"?>
<!-- Generator: Adobe Illustrator 21.0.2, SVG Export Plug-In . SVG Version: 6.00 Build 0)  -->
<svg version="1.1" id="Layer_1" xmlns="http://www.w3.org/2000/svg" xmlns:xlink="http://www.w3.org/1999/xlink" x="0px" y="0px"
	 viewBox="0 0 85 85" style="enable-background:new 0 0 85 85;" xml:space="preserve">
<style type="text/css">
	.st0{fill:#D22425;}
</style>
<g>
	<path class="st0" d="M62.7,21.7h-4.4c-1.5,0-2.8-1.2-2.8-2.8v-0.7c0-1.1-0.6-1.6-1.7-1.6c-1.2,0-1.7,0.5-1.7,1.6v0.7
		c0,1.5-1.2,2.8-2.8,2.8H35.7c-1.5,0-2.8-1.2-2.8-2.8v-0.7c0-1.1-0.8-1.6-1.8-1.6c-1.1,0-1.7,0.6-1.7,1.6v0.7c0,1.5-1.2,2.8-2.8,2.8
		h-4.4c-3.1,0-5.6,2.5-5.6,5.6v35.5c0,3.1,2.5,5.6,5.6,5.6h40.3c3.1,0,5.6-2.5,5.6-5.6V27.4C68.2,24.8,65.9,21.7,62.7,21.7z
		 M23.6,25.1h3.1c1.5,0,2.8,1.2,2.8,2.8v0.9c0,0.9,0.7,1.6,1.7,1.6s1.8-0.7,1.8-1.6v-0.9c0-1.5,1.2-2.8,2.8-2.8h13.6
		c1.5,0,2.8,1.2,2.8,2.8v0.9c0,0.9,0.6,1.6,1.7,1.6c1.1,0,1.7-0.6,1.7-1.6v-0.9c0-1.5,1.2-2.8,2.8-2.8h3.1c1.9,0,3.5,1.6,3.5,3.5v2
		c0,1.5-1.2,2.8-2.8,2.8H23.1c-1.5,0-2.8-1.2-2.8-2.8v-2C20.2,26.7,21.7,25.1,23.6,25.1z M61.3,64.9H23.7c-1.9,0-3.5-1.6-3.5-3.5
		V39.5c0-1.5,1.2-2.8,2.8-2.8h39.1c1.5,0,2.8,1.2,2.8,2.8v21.9C64.8,63,62.8,64.9,61.3,64.9z"/>
	<g>
		<path class="st0" d="M35.1,41.4c0.9,0,1.6,0.1,2.3,0.4s1.3,0.6,1.8,1.1s0.9,1,1.2,1.7c0.3,0.6,0.4,1.4,0.4,2.2
			c0,0.7-0.1,1.3-0.3,1.9s-0.5,1.1-0.8,1.7c-0.3,0.5-0.7,1-1.2,1.5s-0.9,1-1.4,1.5l-4.2,4.2c0.4-0.1,0.8-0.2,1.2-0.3
			c0.4-0.1,0.8-0.1,1.1-0.1h4.7c0.3,0,0.6,0.1,0.8,0.3c0.2,0.2,0.3,0.4,0.3,0.8V59c0,0.6-0.5,1.2-1.2,1.2H28.5v-1
			c0-0.2,0-0.4,0.1-0.7c0.1-0.2,0.2-0.4,0.4-0.6l5.6-5.6c0.5-0.5,0.9-0.9,1.3-1.4c0.4-0.4,0.7-0.9,0.9-1.3c0.2-0.4,0.4-0.9,0.6-1.3
			c0.1-0.4,0.2-0.9,0.2-1.4c0-0.4-0.1-0.8-0.2-1.2c-0.1-0.3-0.3-0.6-0.5-0.8c-0.2-0.2-0.5-0.4-0.8-0.5s-0.7-0.2-1.1-0.2
			s-0.7,0.1-1,0.2s-0.6,0.3-0.8,0.4c-0.2,0.2-0.5,0.4-0.6,0.7c-0.2,0.3-0.3,0.5-0.4,0.8c-0.1,0.4-0.3,0.7-0.6,0.8s-0.6,0.2-1,0.1
			l-0.5-0.1c-0.7-0.1-1.1-0.8-0.9-1.4c0.1-0.4,0.3-0.8,0.5-1.1c0.4-0.7,0.8-1.2,1.4-1.7c0.5-0.4,1.2-0.8,1.9-1S34.3,41.4,35.1,41.4z
			"/>
		<path class="st0" d="M55.3,53.1L55.3,53.1c0.6,0,1.2,0.5,1.2,1.2V55c0,0.2-0.1,0.3-0.2,0.4c-0.1,0.1-0.3,0.2-0.5,0.2h-0.5
			c-0.6,0-1.2,0.5-1.2,1.2V59c0,0.6-0.5,1.2-1.2,1.2h-0.4c-0.6,0-1.2-0.5-1.2-1.2v-2.2c0-0.6-0.5-1.2-1.2-1.2h-6.6
			c-0.2,0-0.4-0.1-0.6-0.2c-0.2-0.1-0.3-0.3-0.3-0.5l-0.2-1.1c-0.1-0.3,0-0.7,0.2-0.9l8.1-10.8c0.2-0.3,0.6-0.5,0.9-0.5h1.2
			c0.6,0,1.2,0.5,1.2,1.2V52C54.2,52.6,54.7,53.1,55.3,53.1z M51.4,47.1c0-0.6,0-1.2,0.1-1.9l-4.4,6.1c-0.6,0.8,0,1.8,0.9,1.8h2.2
			c0.6,0,1.2-0.5,1.2-1.2V47.1z"/>
	</g>
</g>
</svg>
