<?xml version="1.0" encoding="utf-8"?>
<!-- Generator: Adobe Illustrator 19.0.0, SVG Export Plug-In . SVG Version: 6.00 Build 0)  -->
<svg version="1.1" id="Layer_1" xmlns="http://www.w3.org/2000/svg" xmlns:xlink="http://www.w3.org/1999/xlink" x="0px" y="0px"
	 viewBox="87.5 378.4 85 85" style="enable-background:new 87.5 378.4 85 85;" xml:space="preserve">
<g>
	<path d="M150.2,400.1h-4.4c-1.5,0-2.8-1.2-2.8-2.8v-0.7c0-1.1-0.6-1.6-1.7-1.6c-1.2,0-1.7,0.5-1.7,1.6v0.7c0,1.5-1.2,2.8-2.8,2.8
		h-13.6c-1.5,0-2.8-1.2-2.8-2.8v-0.7c0-1.1-0.8-1.6-1.8-1.6c-1.1,0-1.7,0.6-1.7,1.6v0.7c0,1.5-1.2,2.8-2.8,2.8h-4.4
		c-3.1,0-5.6,2.5-5.6,5.6v35.5c0,3.1,2.5,5.6,5.6,5.6h40.3c3.1,0,5.6-2.5,5.6-5.6v-35.4C155.7,403.2,153.4,400.1,150.2,400.1z
		 M111.1,403.5h3.1c1.5,0,2.8,1.2,2.8,2.8v0.9c0,0.9,0.7,1.6,1.7,1.6c1,0,1.8-0.7,1.8-1.6v-0.9c0-1.5,1.2-2.8,2.8-2.8h13.6
		c1.5,0,2.8,1.2,2.8,2.8v0.9c0,0.9,0.6,1.6,1.7,1.6c1.1,0,1.7-0.6,1.7-1.6v-0.9c0-1.5,1.2-2.8,2.8-2.8h3.1c1.9,0,3.5,1.6,3.5,3.5v2
		c0,1.5-1.2,2.8-2.8,2.8h-39.1c-1.5,0-2.8-1.2-2.8-2.8v-2C107.7,405.1,109.2,403.5,111.1,403.5z M148.8,443.3h-37.6
		c-1.9,0-3.5-1.6-3.5-3.5v-21.9c0-1.5,1.2-2.8,2.8-2.8h39.1c1.5,0,2.8,1.2,2.8,2.8v21.9C152.3,441.4,150.3,443.3,148.8,443.3z"/>
	<g>
		<path d="M122.6,419.8c0.9,0,1.6,0.1,2.3,0.4s1.3,0.6,1.8,1.1c0.5,0.5,0.9,1,1.2,1.7c0.3,0.6,0.4,1.4,0.4,2.2
			c0,0.7-0.1,1.3-0.3,1.9c-0.2,0.6-0.5,1.1-0.8,1.7c-0.3,0.5-0.7,1-1.2,1.5c-0.5,0.5-0.9,1-1.4,1.5l-4.2,4.2
			c0.4-0.1,0.8-0.2,1.2-0.3c0.4-0.1,0.8-0.1,1.1-0.1h4.7c0.3,0,0.6,0.1,0.8,0.3c0.2,0.2,0.3,0.4,0.3,0.8v0.7c0,0.6-0.5,1.2-1.2,1.2
			H116v-1c0-0.2,0-0.4,0.1-0.7c0.1-0.2,0.2-0.4,0.4-0.6l5.6-5.6c0.5-0.5,0.9-0.9,1.3-1.4c0.4-0.4,0.7-0.9,0.9-1.3
			c0.2-0.4,0.4-0.9,0.6-1.3c0.1-0.4,0.2-0.9,0.2-1.4c0-0.4-0.1-0.8-0.2-1.2c-0.1-0.3-0.3-0.6-0.5-0.8c-0.2-0.2-0.5-0.4-0.8-0.5
			c-0.3-0.1-0.7-0.2-1.1-0.2c-0.4,0-0.7,0.1-1,0.2c-0.3,0.1-0.6,0.3-0.8,0.4c-0.2,0.2-0.5,0.4-0.6,0.7c-0.2,0.3-0.3,0.5-0.4,0.8
			c-0.1,0.4-0.3,0.7-0.6,0.8s-0.6,0.2-1,0.1l-0.5-0.1c-0.7-0.1-1.1-0.8-0.9-1.4c0.1-0.4,0.3-0.8,0.5-1.1c0.4-0.7,0.8-1.2,1.4-1.7
			c0.5-0.4,1.2-0.8,1.9-1S121.8,419.8,122.6,419.8z"/>
		<path d="M142.8,431.5L142.8,431.5c0.6,0,1.2,0.5,1.2,1.2v0.7c0,0.2-0.1,0.3-0.2,0.4c-0.1,0.1-0.3,0.2-0.5,0.2h-0.5
			c-0.6,0-1.2,0.5-1.2,1.2v2.2c0,0.6-0.5,1.2-1.2,1.2h-0.4c-0.6,0-1.2-0.5-1.2-1.2v-2.2c0-0.6-0.5-1.2-1.2-1.2h-6.6
			c-0.2,0-0.4-0.1-0.6-0.2c-0.2-0.1-0.3-0.3-0.3-0.5l-0.2-1.1c-0.1-0.3,0-0.7,0.2-0.9l8.1-10.8c0.2-0.3,0.6-0.5,0.9-0.5h1.2
			c0.6,0,1.2,0.5,1.2,1.2v9.2C141.7,431,142.2,431.5,142.8,431.5z M138.9,425.5c0-0.6,0-1.2,0.1-1.9l-4.4,6.1
			c-0.6,0.8,0,1.8,0.9,1.8h2.2c0.6,0,1.2-0.5,1.2-1.2V425.5z"/>
	</g>
</g>
</svg>
