<?xml version="1.0" encoding="utf-8"?>
<!-- Generator: Adobe Illustrator 21.0.2, SVG Export Plug-In . SVG Version: 6.00 Build 0)  -->
<svg version="1.1" id="Layer_1" xmlns="http://www.w3.org/2000/svg" xmlns:xlink="http://www.w3.org/1999/xlink" x="0px" y="0px"
	 viewBox="0 0 102.7 102.7" style="enable-background:new 0 0 102.7 102.7;" xml:space="preserve">
<style type="text/css">
	.st0{fill:#D22425;}
</style>
<g>
	<path class="st0" d="M36.4,73.8h-4.6c-2.9,0-5.2-2.3-5.2-5.2V34.1c0-2.9,2.3-5.2,5.2-5.2h4.6c2.9,0,5.2,2.3,5.2,5.2v34.5
		C41.6,71.5,39.2,73.8,36.4,73.8z M31.7,31.9c-1.2,0-2.2,1-2.2,2.2v34.5c0,1.2,1,2.2,2.2,2.2h4.6c1.2,0,2.2-1,2.2-2.2V34.1
		c0-1.2-1-2.2-2.2-2.2H31.7z"/>
	<path class="st0" d="M53.7,56.5h-4.6c-2.9,0-5.2-2.3-5.2-5.2V34.1c0-2.9,2.3-5.2,5.2-5.2h4.6c2.9,0,5.2,2.3,5.2,5.2v17.2
		C58.9,54.2,56.5,56.5,53.7,56.5z M49.1,31.9c-1.2,0-2.2,1-2.2,2.2v17.2c0,1.2,1,2.2,2.2,2.2h4.6c1.2,0,2.2-1,2.2-2.2V34.1
		c0-1.2-1-2.2-2.2-2.2H49.1z"/>
	<path class="st0" d="M53.7,73.8h-4.6c-2.9,0-5.2-2.3-5.2-5.2V64c0-2.9,2.3-5.2,5.2-5.2h4.6c2.9,0,5.2,2.3,5.2,5.2v4.6
		C58.9,71.5,56.5,73.8,53.7,73.8z M49.1,61.9c-1.2,0-2.2,1-2.2,2.2v4.6c0,1.2,1,2.2,2.2,2.2h4.6c1.2,0,2.2-1,2.2-2.2v-4.6
		c0-1.2-1-2.2-2.2-2.2H49.1z"/>
	<path class="st0" d="M71,73.8h-4.6c-2.9,0-5.2-2.3-5.2-5.2V51.4c0-2.9,2.3-5.2,5.2-5.2H71c2.9,0,5.2,2.3,5.2,5.2v17.2
		C76.1,71.5,73.7,73.8,71,73.8z M66.4,49.2c-1.2,0-2.2,1-2.2,2.2v17.2c0,1.2,1,2.2,2.2,2.2H71c1.2,0,2.2-1,2.2-2.2V51.4
		c0-1.2-1-2.2-2.2-2.2H66.4z"/>
	<path class="st0" d="M71,43.9h-4.6c-2.9,0-5.2-2.3-5.2-5.2v-4.6c0-2.9,2.3-5.2,5.2-5.2H71c2.9,0,5.2,2.3,5.2,5.2v4.6
		C76.1,41.6,73.7,43.9,71,43.9z M66.4,31.9c-1.2,0-2.2,1-2.2,2.2v4.6c0,1.2,1,2.2,2.2,2.2H71c1.2,0,2.2-1,2.2-2.2v-4.6
		c0-1.2-1-2.2-2.2-2.2H66.4z"/>
</g>
</svg>
