<?xml version="1.0" encoding="utf-8"?>
<!-- Generator: Adobe Illustrator 21.0.2, SVG Export Plug-In . SVG Version: 6.00 Build 0)  -->
<svg version="1.1" id="Layer_1" xmlns="http://www.w3.org/2000/svg" xmlns:xlink="http://www.w3.org/1999/xlink" x="0px" y="0px"
	 viewBox="0 0 96.7 96.7" style="enable-background:new 0 0 96.7 96.7;" xml:space="preserve">
<style type="text/css">
	.st0{fill:#D22425;}
</style>
<path class="st0" d="M71.3,68.9h-46c-2.7,0-4.8-2.2-4.8-4.8V32.6c0-2.7,2.2-4.8,4.8-4.8h46c2.7,0,4.8,2.2,4.8,4.8v31.5
	C76.2,66.7,74,68.9,71.3,68.9z M72.8,33.4c0-1.3-1-2.3-2.3-2.3H26.2c-1.3,0-2.3,1-2.3,2.3v29.7c0,1.3,1,2.3,2.3,2.3h44.3
	c1.3,0,2.3-1,2.3-2.3V33.4z M69.3,61.3l-7.7-7.7L57.2,58l4,4c0.5,0.5,0.5,1.2,0,1.7s-1.2,0.5-1.7,0L42.1,46.3L27.2,61.2
	c-0.5,0.5-1.2,0.5-1.7,0s-0.5-1.2,0-1.7l15.6-15.6c0-0.1,0.1-0.1,0.1-0.2c0.2-0.2,0.6-0.3,0.9-0.3s0.6,0.1,0.9,0.3
	c0.1,0.1,0.1,0.1,0.1,0.2l12.3,12.3l5.1-5.1c0-0.1,0.1-0.1,0.1-0.2c0.2-0.2,0.6-0.3,0.9-0.3s0.6,0.1,0.9,0.3
	c0.1,0.1,0.1,0.1,0.1,0.2l8.4,8.4c0.5,0.5,0.5,1.2,0,1.7C70.5,61.7,69.8,61.7,69.3,61.3z M56.5,45.3c-2.7,0-4.8-2.2-4.8-4.8
	s2.2-4.8,4.8-4.8c2.7,0,4.8,2.2,4.8,4.8S59.2,45.3,56.5,45.3z M56.5,38c-1.3,0-2.4,1.1-2.4,2.4s1.1,2.4,2.4,2.4s2.4-1.1,2.4-2.4
	S57.9,38,56.5,38z"/>
</svg>
