<?xml version="1.0" encoding="utf-8"?>
<!-- Generator: Adobe Illustrator 21.0.2, SVG Export Plug-In . SVG Version: 6.00 Build 0)  -->
<svg version="1.1" id="Layer_1" xmlns="http://www.w3.org/2000/svg" xmlns:xlink="http://www.w3.org/1999/xlink" x="0px" y="0px"
	 viewBox="0 0 102.7 102.7" style="enable-background:new 0 0 102.7 102.7;" xml:space="preserve">
<style type="text/css">
	.st0{fill:#D22425;}
</style>
<path class="st0" d="M73.4,41.2v-0.9c0-4.7-1.8-4.5-6.5-4.5H51.5c-2.8,0-3.1,0.3-3.1-2.6v0.4c0-4.7-3.8-6.5-8.5-6.5H28.3
	c-4.7,0-5.5,2.8-5.5,5.5v35.1c0,6.4,2.6,8.2,5.5,8.2l0,0h44.3c4.7,0,7.5-3.8,7.5-8.5V49.7C80,45.2,77.6,41.6,73.4,41.2z M28.2,72.5
	c-2.8,0-2.1-2.3-2.1-7.1V33.6c0-1.5-0.1-3.1,3.1-3.1h10.6c2.8,0,5.1,0.3,5.1,3.1c0,4.7,1.8,5.5,6.5,5.5h15.4c2.6,0,3.1-0.2,3.1,1.1
	v0.9H38.8c-4.7,0-8.5,3.8-8.5,8.5v17.8C30.3,70.2,31,72.5,28.2,72.5L28.2,72.5z M76.6,67.4c0,2.8-1.3,5.1-4.1,5.1H33
	c1.1-1.5,0.7-3.2,0.7-5.1V49.7c0-2.8,2.3-5.1,5.1-5.1h33.6c2.8,0,4.1,2.3,4.1,5.1L76.6,67.4L76.6,67.4z"/>
</svg>
