<?xml version="1.0" encoding="utf-8"?>
<!-- Generator: Adobe Illustrator 21.0.2, SVG Export Plug-In . SVG Version: 6.00 Build 0)  -->
<svg version="1.1" id="Layer_1" xmlns="http://www.w3.org/2000/svg" xmlns:xlink="http://www.w3.org/1999/xlink" x="0px" y="0px"
	 viewBox="0 0 91 91" style="enable-background:new 0 0 91 91;" xml:space="preserve">
<style type="text/css">
	.st0{fill:#D22425;}
</style>
<g>
	<rect x="29.2" y="43.3" class="st0" width="3.4" height="6.3"/>
	<rect x="29.2" y="55.9" class="st0" width="3.4" height="6.3"/>
	<rect x="29.2" y="30.8" class="st0" width="3.4" height="6.3"/>
	<rect x="39.7" y="55.9" class="st0" width="3.4" height="6.3"/>
	<rect x="39.7" y="43.3" class="st0" width="3.4" height="6.3"/>
	<rect x="39.7" y="30.8" class="st0" width="3.4" height="6.3"/>
	<rect x="59.1" y="50.6" class="st0" width="6.7" height="3.4"/>
	<rect x="59.1" y="58.9" class="st0" width="6.7" height="3.4"/>
	<path class="st0" d="M54.5,72.3h6.1c7.1,0,12.8-5.7,12.8-12.8V46.8c0-3.4-2.7-6.1-6.1-6.1H54.5c0-2.5,0-2.7,0-6.1v-9.8
		c0-3.4-2.7-6.1-6.1-6.1H23.8c-3.4,0-6.1,2.7-6.1,6.1v41.4c0,3.4,2.7,6.1,6.1,6.1h27.3H54.5L54.5,72.3z M70.1,50.2v9.3
		c0,5.2-4.2,9.4-9.4,9.4l0,0c-3.4,0-2.6,0-6.1,0V50.2c0-3.4,0-3.3,0-6.1H64C69.8,44.1,70.1,44.4,70.1,50.2z M21.1,65.8
		c0-2.1,0-37.6,0-37.6c0-5.6,0.4-6.1,6.1-6.1H45c5.5,0,6.1,0.4,6.1,6.1v12.5v28.2c-1.6,0-2.7,0-6.1,0c0,0-17.9,0-20.9,0
		C22,68.9,21.1,67.9,21.1,65.8z"/>
</g>
</svg>
