<?xml version="1.0" encoding="utf-8"?>
<!-- Generator: Adobe Illustrator 19.0.0, SVG Export Plug-In . SVG Version: 6.00 Build 0)  -->
<svg version="1.1" id="Layer_1" xmlns="http://www.w3.org/2000/svg" xmlns:xlink="http://www.w3.org/1999/xlink" x="0px" y="0px"
	 viewBox="-337 375.9 91 91" style="enable-background:new -337 375.9 91 91;" xml:space="preserve">
<style type="text/css">
	.st0{fill:#010101;}
</style>
<g>
	<rect x="-307.8" y="419.2" class="st0" width="3.4" height="6.3"/>
	<rect x="-307.8" y="431.8" class="st0" width="3.4" height="6.3"/>
	<rect x="-307.8" y="406.7" class="st0" width="3.4" height="6.3"/>
	<rect x="-297.3" y="431.8" class="st0" width="3.4" height="6.3"/>
	<rect x="-297.3" y="419.2" class="st0" width="3.4" height="6.3"/>
	<rect x="-297.3" y="406.7" class="st0" width="3.4" height="6.3"/>
	<rect x="-277.9" y="426.5" class="st0" width="6.7" height="3.4"/>
	<rect x="-277.9" y="434.8" class="st0" width="6.7" height="3.4"/>
	<path class="st0" d="M-282.5,448.2h6.1c7.1,0,12.8-5.7,12.8-12.8v-12.7c0-3.4-2.7-6.1-6.1-6.1h-12.8c0-2.5,0-2.7,0-6.1v-9.8
		c0-3.4-2.7-6.1-6.1-6.1h-24.6c-3.4,0-6.1,2.7-6.1,6.1v41.4c0,3.4,2.7,6.1,6.1,6.1h27.3H-282.5L-282.5,448.2z M-266.9,426.1v9.3
		c0,5.2-4.2,9.4-9.4,9.4l0,0c-3.4,0-2.6,0-6.1,0v-18.7c0-3.4,0-3.3,0-6.1h9.4C-267.2,420-266.9,420.3-266.9,426.1z M-315.9,441.7
		c0-2.1,0-37.6,0-37.6c0-5.6,0.4-6.1,6.1-6.1h17.8c5.5,0,6.1,0.4,6.1,6.1v12.5v28.2c-1.6,0-2.7,0-6.1,0c0,0-17.9,0-20.9,0
		C-315,444.8-315.9,443.8-315.9,441.7z"/>
</g>
</svg>
