<?xml version="1.0" encoding="utf-8"?>
<!-- Generator: Adobe Illustrator 21.0.2, SVG Export Plug-In . SVG Version: 6.00 Build 0)  -->
<svg version="1.1" id="Layer_1" xmlns="http://www.w3.org/2000/svg" xmlns:xlink="http://www.w3.org/1999/xlink" x="0px" y="0px"
	 viewBox="0 0 77.9 77.9" style="enable-background:new 0 0 77.9 77.9;" xml:space="preserve">
<style type="text/css">
	.st0{fill:#D22425;}
</style>
<g>
	<g>
		<path class="st0" d="M23.3,51.6h-5c-0.8,0-1.5-0.7-1.5-1.5V33.9c0-0.8,0.7-1.5,1.5-1.5h3.2c-0.2-0.3-0.3-3-0.3-3.4H16
			c-1.4,0-2.6,1.2-2.6,2.6v20.8c0,1.4,1.2,2.6,2.6,2.6h7.6C23.4,54.7,23.3,52,23.3,51.6z"/>
	</g>
	<g>
		<path class="st0" d="M63.2,29.1h-5.5c0.1,0.3,0.1,3.1,0,3.4h3.1c0.8,0,1.5,0.7,1.5,1.5v16.1c0,0.8-0.7,1.5-1.5,1.5h-6.2
			c0.2,0.3,0.2,3,0.2,3.4h8.3c1.4,0,2.6-1.2,2.6-2.6V31.6C65.8,30.2,64.6,29.1,63.2,29.1z"/>
	</g>
</g>
<g>
	<g>
		<path class="st0" d="M22.4,38.8c-0.6,0-1.1-0.3-1.5-0.8l0,0c-0.3-0.5-0.5-1.1-0.5-1.8l0,0V15.4c0-0.7,0.2-1.3,0.5-1.8l0,0
			c0.3-0.5,0.9-0.8,1.5-0.8l0,0h34.1c0.6,0,1.1,0.3,1.5,0.8l0,0c0.3,0.5,0.5,1.1,0.5,1.8l0,0v20.3l0,0v0.5c0,0.7-0.2,1.3-0.5,1.8
			l0,0c-0.3,0.5-0.9,0.8-1.5,0.8l0,0H22.4L22.4,38.8z M24.2,16.6c-0.2,0.3-0.3,0.7-0.3,1.1l0,0v16.2c0,0.5,0.1,0.9,0.3,1.1l0,0
			c0.2,0.3,0.4,0.4,0.6,0.4l0,0h29.4c0.2,0,0.4-0.1,0.6-0.4l0,0c0.2-0.2,0.3-0.6,0.3-1.1l0,0V17.7c0-0.5-0.1-0.9-0.3-1.1l0,0
			c-0.2-0.3-0.4-0.4-0.6-0.4l0,0H24.8l0,0l0,0C24.6,16.2,24.4,16.3,24.2,16.6L24.2,16.6z"/>
	</g>
</g>
<g>
	<g>
		<path class="st0" d="M22.7,62.2V48.6c0-1,0.8-1.9,1.8-1.9l0,0h29.2c1,0,1.8,0.9,1.8,1.9l0,0v13.6c0,1-0.8,1.9-1.8,1.9l0,0H24.5
			C23.5,64.1,22.7,63.2,22.7,62.2L22.7,62.2z M26.1,50.9v8.9c0,0.5,0.3,0.8,0.7,0.8l0,0h24.5c0.4,0,0.7-0.3,0.7-0.8l0,0v-8.9
			c0-0.5-0.3-0.8-0.7-0.8l0,0H26.8C26.5,50.1,26.1,50.5,26.1,50.9L26.1,50.9z"/>
	</g>
</g>
<g>
	<g>
		<polygon class="st0" points="26.8,24.7 26.8,21.3 52.1,21.3 52.1,24.7 		"/>
	</g>
</g>
<g>
	<g>
		<polygon class="st0" points="26.8,30.3 26.8,26.9 52.1,26.9 52.1,30.3 		"/>
	</g>
</g>
</svg>
