<?xml version="1.0" encoding="utf-8"?>
<!-- Generator: Adobe Illustrator 21.0.2, SVG Export Plug-In . SVG Version: 6.00 Build 0)  -->
<svg version="1.1" id="Layer_1" xmlns="http://www.w3.org/2000/svg" xmlns:xlink="http://www.w3.org/1999/xlink" x="0px" y="0px"
	 viewBox="0 0 91 91" style="enable-background:new 0 0 91 91;" xml:space="preserve">
<style type="text/css">
	.st0{fill:#D22425;}
</style>
<g>
	<path class="st0" d="M53.4,53.1c-5,0-9.1-4.1-9.1-9.1s4.1-9.1,9.1-9.1s9.1,4.1,9.1,9.1S58.4,53.1,53.4,53.1z M53.4,38.3
		c-3.1,0-5.7,2.5-5.7,5.7s2.5,5.7,5.7,5.7s5.7-2.5,5.7-5.7S56.5,38.3,53.4,38.3z"/>
	<path class="st0" d="M31.2,53.1c-5,0-9.1-4.1-9.1-9.1s4.1-9.1,9.1-9.1s9.1,4.1,9.1,9.1S36.3,53.1,31.2,53.1z M31.2,38.3
		c-3.1,0-5.7,2.5-5.7,5.7s2.5,5.7,5.7,5.7s5.7-2.5,5.7-5.7S34.4,38.3,31.2,38.3z"/>
	<g>
		
			<rect x="57.4" y="33.4" transform="matrix(0.7071 -0.7071 0.7071 0.7071 -6.5943 54.3391)" class="st0" width="9.8" height="3.4"/>
		<g>
			<rect x="59.7" y="28.5" class="st0" width="9.2" height="3.4"/>
			<rect x="65.5" y="28.5" class="st0" width="3.4" height="9.2"/>
		</g>
	</g>
	<rect x="29.5" y="52.7" class="st0" width="3.4" height="9.8"/>
	<rect x="26.3" y="55.9" class="st0" width="9.8" height="3.4"/>
</g>
</svg>
