<?xml version="1.0" encoding="utf-8"?>
<!-- Generator: Adobe Illustrator 19.0.0, SVG Export Plug-In . SVG Version: 6.00 Build 0)  -->
<svg version="1.1" id="Layer_1" xmlns="http://www.w3.org/2000/svg" xmlns:xlink="http://www.w3.org/1999/xlink" x="0px" y="0px"
	 viewBox="-337 375.9 91 91" style="enable-background:new -337 375.9 91 91;" xml:space="preserve">
<g>
	<path d="M-283.6,429c-5,0-9.1-4.1-9.1-9.1s4.1-9.1,9.1-9.1c5,0,9.1,4.1,9.1,9.1S-278.6,429-283.6,429z M-283.6,414.2
		c-3.1,0-5.7,2.5-5.7,5.7s2.5,5.7,5.7,5.7s5.7-2.5,5.7-5.7S-280.5,414.2-283.6,414.2z"/>
	<path d="M-305.8,429c-5,0-9.1-4.1-9.1-9.1s4.1-9.1,9.1-9.1c5,0,9.1,4.1,9.1,9.1S-300.7,429-305.8,429z M-305.8,414.2
		c-3.1,0-5.7,2.5-5.7,5.7s2.5,5.7,5.7,5.7s5.7-2.5,5.7-5.7S-302.6,414.2-305.8,414.2z"/>
	<g>
		<rect x="-276.4" y="406.1" transform="matrix(0.7071 0.7071 -0.7071 0.7071 210.1544 314.6518)" width="3.4" height="9.8"/>
		<g>
			<rect x="-277.3" y="404.4" width="9.2" height="3.4"/>
			<rect x="-271.5" y="404.4" width="3.4" height="9.2"/>
		</g>
	</g>
	<rect x="-307.5" y="428.6" width="3.4" height="9.8"/>
	<rect x="-310.7" y="431.8" width="9.8" height="3.4"/>
</g>
</svg>
