<?xml version="1.0" encoding="utf-8"?>
<!-- Generator: Adobe Illustrator 19.0.0, SVG Export Plug-In . SVG Version: 6.00 Build 0)  -->
<svg version="1.1" id="Capa_1" xmlns="http://www.w3.org/2000/svg" xmlns:xlink="http://www.w3.org/1999/xlink" x="0px" y="0px"
	 viewBox="-397.7 375.2 91.3 91.3" style="enable-background:new -397.7 375.2 91.3 91.3;" xml:space="preserve">
<style type="text/css">
	.st0{fill:#262324;}
</style>
<path class="st0" d="M-328.3,418.3c0,0.9,0.7,1.8,1.8,1.8s1.8-0.7,1.8-1.8c0-12.4-10.2-22.6-22.6-22.6c-0.9,0-1.8,0.7-1.8,1.8
	s0.7,1.8,1.8,1.8C-336.9,399.1-328.3,407.7-328.3,418.3z M-349.1,406.5c0,0.9,0.7,1.8,1.8,1.8c5.4,0,9.7,4.3,9.7,9.7
	c0,0.9,0.7,1.8,1.8,1.8s1.8-0.7,1.8-1.8c0-7.2-5.9-13.1-13.1-13.1C-348.4,404.9-349.1,405.6-349.1,406.5z M-339.6,423
	c-0.2-0.2-0.7-0.5-1.1-0.5l0,0c-0.5,0-0.9,0.2-1.1,0.5l-3.6,3.6c-1.4,1.4-3.6,1.4-5,0l-6.8-6.1c-1.4-1.4-1.4-3.6,0-5l4.1-4.1
	c0.7-0.7,0.7-1.8,0-2.5l-15.1-14.9c-0.2-0.2-0.7-0.5-1.1-0.5c-0.5,0-0.9,0.2-1.1,0.5s-3.8,3.8-5,5.2c-3.2,3.2-3.6,9.7-1.4,15.4
	c5,12.4,16.7,22.8,30.5,31.2c1.1,0.7,3.8,1.4,6.6,1.4l0,0c2.5,0,6.1-0.5,9.3-3.2c2.9-2.5,4.7-4.5,5-4.7c0.7-0.7,0.7-1.8,0-2.3
	L-339.6,423z M-332.8,441.3c-2.3,2-5,2.3-7,2.3l0,0c-2.5,0-4.5-0.7-4.7-0.9c-15.6-9.3-25.1-18.8-29.2-29.4
	c-1.8-4.7-1.1-9.9,0.5-11.7c0.9-0.9,2-2,3.8-3.8l12.4,12.4l-2.9,2.9c-2.7,2.7-2.7,7,0,9.7l6.8,6.1c2.5,2.5,7,2.5,9.7,0l2.5-2.5
	l11.5,11.5C-330.5,439.5-331,440-332.8,441.3z"/>
</svg>
