<?xml version="1.0" encoding="utf-8"?>
<!-- Generator: Adobe Illustrator 21.0.2, SVG Export Plug-In . SVG Version: 6.00 Build 0)  -->
<svg version="1.1" id="Capa_1" xmlns="http://www.w3.org/2000/svg" xmlns:xlink="http://www.w3.org/1999/xlink" x="0px" y="0px"
	 viewBox="0 0 91.3 91.3" style="enable-background:new 0 0 91.3 91.3;" xml:space="preserve">
<style type="text/css">
	.st0{fill:#D22425;}
</style>
<path class="st0" d="M69.4,43.1c0,0.9,0.7,1.8,1.8,1.8s1.8-0.7,1.8-1.8c0-12.4-10.2-22.6-22.6-22.6c-0.9,0-1.8,0.7-1.8,1.8
	s0.7,1.8,1.8,1.8C60.8,23.9,69.4,32.5,69.4,43.1z M48.6,31.3c0,0.9,0.7,1.8,1.8,1.8c5.4,0,9.7,4.3,9.7,9.7c0,0.9,0.7,1.8,1.8,1.8
	s1.8-0.7,1.8-1.8c0-7.2-5.9-13.1-13.1-13.1C49.3,29.7,48.6,30.4,48.6,31.3z M58.1,47.8c-0.2-0.2-0.7-0.5-1.1-0.5l0,0
	c-0.5,0-0.9,0.2-1.1,0.5l-3.6,3.6c-1.4,1.4-3.6,1.4-5,0l-6.8-6.1c-1.4-1.4-1.4-3.6,0-5l4.1-4.1c0.7-0.7,0.7-1.8,0-2.5L29.5,18.8
	c-0.2-0.2-0.7-0.5-1.1-0.5c-0.5,0-0.9,0.2-1.1,0.5s-3.8,3.8-5,5.2c-3.2,3.2-3.6,9.7-1.4,15.4c5,12.4,16.7,22.8,30.5,31.2
	c1.1,0.7,3.8,1.4,6.6,1.4l0,0c2.5,0,6.1-0.5,9.3-3.2c2.9-2.5,4.7-4.5,5-4.7c0.7-0.7,0.7-1.8,0-2.3L58.1,47.8z M64.9,66.1
	c-2.3,2-5,2.3-7,2.3l0,0c-2.5,0-4.5-0.7-4.7-0.9C37.6,58.2,28.1,48.7,24,38.1c-1.8-4.7-1.1-9.9,0.5-11.7c0.9-0.9,2-2,3.8-3.8
	L40.7,35l-2.9,2.9c-2.7,2.7-2.7,7,0,9.7l6.8,6.1c2.5,2.5,7,2.5,9.7,0l2.5-2.5l11.5,11.5C67.2,64.3,66.7,64.8,64.9,66.1z"/>
</svg>
