<?xml version="1.0" encoding="utf-8"?>
<!-- Generator: Adobe Illustrator 21.0.2, SVG Export Plug-In . SVG Version: 6.00 Build 0)  -->
<svg version="1.1" id="Layer_1" xmlns="http://www.w3.org/2000/svg" xmlns:xlink="http://www.w3.org/1999/xlink" x="0px" y="0px"
	 viewBox="0 0 85 85" style="enable-background:new 0 0 85 85;" xml:space="preserve">
<style type="text/css">
	.st0{fill:#D22425;}
</style>
<g>
	<path class="st0" d="M40.7,25.3l-12.3,7.9c-0.8,0.5-1,1.6-0.5,2.4l0,0c0.5,0.8,1.6,1,2.4,0.5c0,0,9.3-6.1,11.1-7.3
		c0.7-0.6,1.7-0.6,2.4,0c2,1.3,11,7.3,11,7.3c0.8,0.5,1.8,0.3,2.4-0.5l0,0c0.5-0.8,0.3-1.8-0.5-2.4l-12.3-7.9
		C43.3,24.6,41.8,24.6,40.7,25.3z"/>
	<path class="st0" d="M48.7,41.7c0,0.9-0.8,1.7-1.7,1.7h-8.8c-0.9,0-1.7-0.8-1.7-1.7V35l-3.4,2.3c0,1.5,0,5.1,0,5.1
		c0,2.4,2,4.4,4.4,4.4h10.2c2.4,0,4.4-2,4.4-4.4c0,0,0-3.4,0-5.1L48.7,35C48.7,35,48.7,39.6,48.7,41.7z"/>
	<path class="st0" d="M42.5,12.9c-13,0-23.5,10.5-23.5,23.5c0,10.6,7.3,20,17.4,22.7l4.5,11.8c0.3,0.7,0.9,1.1,1.6,1.1l0,0
		c0.7,0,1.3-0.4,1.6-1.1l4.3-11.7C58.7,56.6,66,47.1,66,36.5C66,23.5,55.5,12.9,42.5,12.9z M46.8,56.1c-0.6,0.1-1,0.5-1.2,1.1
		l-3,8.3l-3.2-8.3c-0.2-0.5-0.7-0.9-1.2-1.1c-9.1-2-15.7-10.3-15.7-19.6c0-11.1,9-20.1,20.1-20.1s20.1,9,20.1,20.1
		C62.6,45.8,56,54.1,46.8,56.1z"/>
</g>
</svg>
