<?xml version="1.0" encoding="utf-8"?>
<!-- Generator: Adobe Illustrator 21.0.2, SVG Export Plug-In . SVG Version: 6.00 Build 0)  -->
<svg version="1.1" id="Layer_1" xmlns="http://www.w3.org/2000/svg" xmlns:xlink="http://www.w3.org/1999/xlink" x="0px" y="0px"
	 viewBox="0 0 91 91" style="enable-background:new 0 0 91 91;" xml:space="preserve">
<style type="text/css">
	.st0{fill:#D22425;}
</style>
<g>
	<path class="st0" d="M45.5,52.1c-9.3,0-16.8-7.5-16.8-16.8s7.5-16.8,16.8-16.8S62.3,26,62.3,35.3S54.8,52.1,45.5,52.1z M45.5,21.9
		c-7.4,0-13.4,6-13.4,13.4s6,13.4,13.4,13.4s13.4-6,13.4-13.4S52.9,21.9,45.5,21.9z"/>
	<path class="st0" d="M20,72.5c0-13.1,11.4-23.8,25.5-23.8S71,59.4,71,72.5c0,0-1,0-3.4,0c0-11.2-9.9-20.4-22.1-20.4
		s-22.1,9.2-22.1,20.4C23.4,72.5,22.2,72.5,20,72.5z"/>
</g>
</svg>
