<?xml version="1.0" encoding="utf-8"?>
<!-- Generator: Adobe Illustrator 21.0.2, SVG Export Plug-In . SVG Version: 6.00 Build 0)  -->
<svg version="1.1" id="Layer_1" xmlns="http://www.w3.org/2000/svg" xmlns:xlink="http://www.w3.org/1999/xlink" x="0px" y="0px"
	 viewBox="0 0 108 108" style="enable-background:new 0 0 108 108;" xml:space="preserve">
<style type="text/css">
	.st0{fill:#D22425;}
</style>
<g>
	<path class="st0" d="M35.8,57.3h1.3c0.1,0,0.2,0,0.3,0.1c0.1,0.1,0.1,0.1,0.2,0.2l1,3.7c0.1,0.2,0.1,0.4,0.1,0.6s0.1,0.4,0.1,0.6
		c0.1-0.2,0.1-0.4,0.2-0.6s0.1-0.4,0.2-0.6l1.2-3.8c0-0.1,0.1-0.2,0.2-0.2c0.1-0.1,0.2-0.1,0.3-0.1h0.7c0.1,0,0.2,0,0.3,0.1
		c0.1,0.1,0.1,0.1,0.2,0.2l1.1,3.8c0.1,0.2,0.1,0.4,0.2,0.6s0.1,0.4,0.1,0.6c0-0.2,0.1-0.4,0.1-0.6s0.1-0.4,0.1-0.6l1-3.7
		c0-0.1,0.1-0.2,0.2-0.2c0.1-0.1,0.2-0.1,0.3-0.1h1.3l-2.2,7H43c-0.2,0-0.3-0.1-0.3-0.3l-1.3-4c-0.1-0.3-0.2-0.5-0.2-0.8
		c-0.1,0.3-0.1,0.5-0.2,0.8l-1.3,4c-0.1,0.2-0.2,0.3-0.4,0.3H38L35.8,57.3z"/>
	<path class="st0" d="M46.8,57.3h1.3c0.1,0,0.2,0,0.3,0.1c0.1,0.1,0.1,0.1,0.2,0.2l1,3.7c0.1,0.2,0.1,0.4,0.1,0.6s0.1,0.4,0.1,0.6
		c0.1-0.2,0.1-0.4,0.2-0.6s0.1-0.4,0.2-0.6l1.2-3.8c0-0.1,0.1-0.2,0.2-0.2c0.1-0.1,0.2-0.1,0.3-0.1h0.7c0.1,0,0.2,0,0.3,0.1
		s0.1,0.1,0.2,0.2l1.1,3.8c0.1,0.2,0.1,0.4,0.2,0.6c0.1,0.2,0.1,0.4,0.1,0.6c0-0.2,0.1-0.4,0.1-0.6s0.1-0.4,0.1-0.6l1-3.7
		c0-0.1,0.1-0.2,0.2-0.2c0.1-0.1,0.2-0.1,0.3-0.1h1.3l-2.2,7h-1.4c-0.2,0-0.3-0.1-0.3-0.3l-1.3-4c-0.1-0.3-0.2-0.5-0.2-0.8
		C52,59.5,52,59.7,51.9,60l-1.3,4c-0.1,0.2-0.2,0.3-0.4,0.3H49L46.8,57.3z"/>
	<path class="st0" d="M57.8,57.3h1.3c0.1,0,0.2,0,0.3,0.1s0.1,0.1,0.2,0.2l1,3.7c0.1,0.2,0.1,0.4,0.1,0.6s0.1,0.4,0.1,0.6
		c0.1-0.2,0.1-0.4,0.2-0.6c0.1-0.2,0.1-0.4,0.2-0.6l1.2-3.8c0-0.1,0.1-0.2,0.2-0.2c0.1-0.1,0.2-0.1,0.3-0.1h0.7c0.1,0,0.2,0,0.3,0.1
		s0.1,0.1,0.2,0.2l1.1,3.8c0.1,0.2,0.1,0.4,0.2,0.6c0.1,0.2,0.1,0.4,0.1,0.6c0-0.2,0.1-0.4,0.1-0.6s0.1-0.4,0.1-0.6l1-3.7
		c0-0.1,0.1-0.2,0.2-0.2c0.1-0.1,0.2-0.1,0.3-0.1h1.3l-2.2,7h-1.4c-0.2,0-0.3-0.1-0.3-0.3l-1.3-4c-0.1-0.3-0.2-0.5-0.2-0.8
		C63,59.5,63,59.7,62.9,60l-1.3,4c-0.1,0.2-0.2,0.3-0.4,0.3H60L57.8,57.3z"/>
</g>
<path class="st0" d="M57.8,39.5c8.1,0,11.4,4.8,11.4,10.8v0.1c0,0.1,0,0.2,0,0.2V53h1.7c4.9,0,8.6,2.6,8.6,8c0,4-3.1,7.3-7.1,7.3H72
	H40.4c-4.8,0-9.9-1.2-9.9-8.1c0-3.8,4-6.5,7.3-7.6c0,0,0.4-6,4.9-6.7c0.7-0.1,1.5,0.2,2.2,0.5l2.1,1l1-1.8
	C49.7,42,53.6,39.5,57.8,39.5 M58.2,36.1c-5.7,0-10.7,2.4-13,7.2c-1-0.5-2.1-0.8-3.3-0.8c-3.7,0-6.7,4.7-7.3,8.2
	c-4.4,1.5-7.5,5.6-7.5,10.5c0,6.2,5,10.6,11.1,10.6h34.4l0,0c5.6,0,10.2-4.1,10.2-9.7c0-7-4-12.2-10.2-12.2c0-0.1,0-0.3,0-0.4
	C72.6,41.5,66.1,36.1,58.2,36.1L58.2,36.1z"/>
</svg>
