<?xml version="1.0" encoding="utf-8"?>
<!-- Generator: Adobe Illustrator 19.0.0, SVG Export Plug-In . SVG Version: 6.00 Build 0)  -->
<svg version="1.1" id="Слой_1" xmlns="http://www.w3.org/2000/svg" xmlns:xlink="http://www.w3.org/1999/xlink" x="0px" y="0px"
	 viewBox="-318 356.9 128 128" style="enable-background:new -318 356.9 128 128;" xml:space="preserve">
<g>
	<path id="XMLID_1_" d="M-224.9,400.4c-0.6-1-1.4-1.7-2.3-2.2l0,0c-0.9-0.5-1.9-0.8-3-0.8h-47.4c-1.1,0-2.1,0.2-3,0.8l0,0
		c-1,0.5-1.8,1.3-2.3,2.2c-0.7,1-1,2.2-1,3.4V438c0,1.2,0.3,2.3,0.9,3.3c0.6,1,1.3,1.7,2.2,2.2c1,0.6,2.1,0.9,3.3,0.9h47.3
		c1.2,0,2.3-0.3,3.3-0.9c1-0.6,1.7-1.3,2.2-2.2c0.6-1,0.9-2.1,0.9-3.3v-34.2C-223.9,402.5-224.3,401.4-224.9,400.4z M-265,409.2
		l-12.7-8.6h47.4c0.1,0,0.2,0,0.2,0l-12.2,8.6h5.5l9.4-6.7c0.2,0.4,0.2,0.8,0.2,1.3V438c0,0.3,0,0.6-0.2,0.8l-11.3-6.6h-6.1
		l15.1,8.9c-0.2,0.1-0.6,0.2-0.8,0.2h-47.3c-0.3,0-0.6,0-0.8-0.2l15.2-8.9h-6.1l-11.3,6.6c-0.2-0.2-0.2-0.5-0.2-0.8v-34.2
		c0-0.5,0.2-1,0.3-1.4l9.9,6.8H-265z"/>
	<g>
		<path d="M-257.5,413.3v1c0,0.3-0.1,0.6-0.3,0.9l-7.7,10.9h7.8v2.2h-11.5v-1.1c0-0.1,0-0.3,0.1-0.4c0-0.1,0.1-0.2,0.2-0.4l7.7-11
			h-7.5v-2.2H-257.5z"/>
		<path d="M-252.5,428.3h-2.8v-15.1h2.8V428.3z"/>
		<path d="M-246.3,423v5.3h-2.8v-15.1h4.9c1,0,1.9,0.1,2.6,0.4c0.7,0.2,1.3,0.6,1.8,1c0.5,0.4,0.8,0.9,1.1,1.5
			c0.2,0.6,0.3,1.2,0.3,1.9c0,0.7-0.1,1.4-0.4,2c-0.2,0.6-0.6,1.1-1.1,1.6c-0.5,0.4-1.1,0.8-1.8,1c-0.7,0.2-1.6,0.4-2.6,0.4H-246.3z
			 M-246.3,420.9h2.1c0.5,0,1-0.1,1.3-0.2c0.4-0.1,0.7-0.3,1-0.6c0.3-0.2,0.4-0.5,0.6-0.9c0.1-0.3,0.2-0.7,0.2-1.2
			c0-0.4-0.1-0.8-0.2-1.1c-0.1-0.3-0.3-0.6-0.6-0.8c-0.2-0.2-0.6-0.4-0.9-0.5c-0.4-0.1-0.8-0.2-1.4-0.2h-2.1V420.9z"/>
	</g>
</g>
</svg>
