<?xml version="1.0" encoding="utf-8"?>
<!-- Generator: Adobe Illustrator 21.0.2, SVG Export Plug-In . SVG Version: 6.00 Build 0)  -->
<svg version="1.1" id="Слой_1" xmlns="http://www.w3.org/2000/svg" xmlns:xlink="http://www.w3.org/1999/xlink" x="0px" y="0px"
	 viewBox="0 0 128 128" style="enable-background:new 0 0 128 128;" xml:space="preserve">
<style type="text/css">
	.st0{fill:#D22425;}
</style>
<g>
	<path id="XMLID_1_" class="st0" d="M93.1,43.5c-0.6-1-1.4-1.7-2.3-2.2l0,0c-0.9-0.5-1.9-0.8-3-0.8H40.4c-1.1,0-2.1,0.2-3,0.8l0,0
		c-1,0.5-1.8,1.3-2.3,2.2c-0.7,1-1,2.2-1,3.4v34.2c0,1.2,0.3,2.3,0.9,3.3s1.3,1.7,2.2,2.2c1,0.6,2.1,0.9,3.3,0.9h47.3
		c1.2,0,2.3-0.3,3.3-0.9s1.7-1.3,2.2-2.2c0.6-1,0.9-2.1,0.9-3.3V46.9C94.1,45.6,93.7,44.5,93.1,43.5z M53,52.3l-12.7-8.6h47.4
		c0.1,0,0.2,0,0.2,0l-12.2,8.6h5.5l9.4-6.7c0.2,0.4,0.2,0.8,0.2,1.3v34.2c0,0.3,0,0.6-0.2,0.8l-11.3-6.6h-6.1l15.1,8.9
		c-0.2,0.1-0.6,0.2-0.8,0.2H40.2c-0.3,0-0.6,0-0.8-0.2l15.2-8.9h-6.1l-11.3,6.6C37,81.7,37,81.4,37,81.1V46.9c0-0.5,0.2-1,0.3-1.4
		l9.9,6.8L53,52.3L53,52.3z"/>
	<g>
		<path class="st0" d="M60.5,56.4v1c0,0.3-0.1,0.6-0.3,0.9l-7.7,10.9h7.8v2.2H48.8v-1.1c0-0.1,0-0.3,0.1-0.4c0-0.1,0.1-0.2,0.2-0.4
			l7.7-11h-7.5v-2.2h11.2V56.4z"/>
		<path class="st0" d="M65.5,71.4h-2.8V56.3h2.8V71.4z"/>
		<path class="st0" d="M71.7,66.1v5.3h-2.8V56.3h4.9c1,0,1.9,0.1,2.6,0.4c0.7,0.2,1.3,0.6,1.8,1s0.8,0.9,1.1,1.5
			c0.2,0.6,0.3,1.2,0.3,1.9c0,0.7-0.1,1.4-0.4,2c-0.2,0.6-0.6,1.1-1.1,1.6c-0.5,0.4-1.1,0.8-1.8,1s-1.6,0.4-2.6,0.4L71.7,66.1
			L71.7,66.1z M71.7,64h2.1c0.5,0,1-0.1,1.3-0.2c0.4-0.1,0.7-0.3,1-0.6c0.3-0.2,0.4-0.5,0.6-0.9c0.1-0.3,0.2-0.7,0.2-1.2
			c0-0.4-0.1-0.8-0.2-1.1c-0.1-0.3-0.3-0.6-0.6-0.8c-0.2-0.2-0.6-0.4-0.9-0.5c-0.4-0.1-0.8-0.2-1.4-0.2h-2.1L71.7,64L71.7,64z"/>
	</g>
</g>
</svg>
