<?xml version="1.0" encoding="utf-8"?>
<!-- Generator: Adobe Illustrator 19.0.0, SVG Export Plug-In . SVG Version: 6.00 Build 0)  -->
<svg version="1.1" id="Layer_1" xmlns="http://www.w3.org/2000/svg" xmlns:xlink="http://www.w3.org/1999/xlink" x="0px" y="0px"
	 viewBox="-382.3 372.6 96.7 96.7" style="enable-background:new -382.3 372.6 96.7 96.7;" xml:space="preserve">
<path d="M-311,441.5h-46c-2.7,0-4.8-2.2-4.8-4.8v-31.5c0-2.7,2.2-4.8,4.8-4.8h46c2.7,0,4.8,2.2,4.8,4.8v31.5
	C-306.1,439.3-308.3,441.5-311,441.5z M-309.5,406c0-1.3-1-2.3-2.3-2.3h-44.3c-1.3,0-2.3,1-2.3,2.3v29.7c0,1.3,1,2.3,2.3,2.3h44.3
	c1.3,0,2.3-1,2.3-2.3V406z M-313,433.9l-7.7-7.7l-4.4,4.4l4,4c0.5,0.5,0.5,1.2,0,1.7c-0.5,0.5-1.2,0.5-1.7,0l-17.4-17.4l-14.9,14.9
	c-0.5,0.5-1.2,0.5-1.7,0c-0.5-0.5-0.5-1.2,0-1.7l15.6-15.6c0-0.1,0.1-0.1,0.1-0.2c0.2-0.2,0.6-0.3,0.9-0.3c0.3,0,0.6,0.1,0.9,0.3
	c0.1,0.1,0.1,0.1,0.1,0.2l12.3,12.3l5.1-5.1c0-0.1,0.1-0.1,0.1-0.2c0.2-0.2,0.6-0.3,0.9-0.3c0.3,0,0.6,0.1,0.9,0.3
	c0.1,0.1,0.1,0.1,0.1,0.2l8.4,8.4c0.5,0.5,0.5,1.2,0,1.7C-311.8,434.3-312.5,434.3-313,433.9z M-325.8,417.9c-2.7,0-4.8-2.2-4.8-4.8
	s2.2-4.8,4.8-4.8c2.7,0,4.8,2.2,4.8,4.8S-323.1,417.9-325.8,417.9z M-325.8,410.6c-1.3,0-2.4,1.1-2.4,2.4s1.1,2.4,2.4,2.4
	c1.3,0,2.4-1.1,2.4-2.4S-324.4,410.6-325.8,410.6z"/>
</svg>
