<?xml version="1.0" encoding="utf-8"?>
<!-- Generator: Adobe Illustrator 19.0.0, SVG Export Plug-In . SVG Version: 6.00 Build 0)  -->
<svg version="1.1" id="Layer_1" xmlns="http://www.w3.org/2000/svg" xmlns:xlink="http://www.w3.org/1999/xlink" x="0px" y="0px"
	 viewBox="-331 369.2 102.7 102.7" style="enable-background:new -331 369.2 102.7 102.7;" xml:space="preserve">
<g>
	<path d="M-294.6,443h-4.6c-2.9,0-5.2-2.3-5.2-5.2v-34.5c0-2.9,2.3-5.2,5.2-5.2h4.6c2.9,0,5.2,2.3,5.2,5.2v34.5
		C-289.4,440.7-291.8,443-294.6,443z M-299.3,401.1c-1.2,0-2.2,1-2.2,2.2v34.5c0,1.2,1,2.2,2.2,2.2h4.6c1.2,0,2.2-1,2.2-2.2v-34.5
		c0-1.2-1-2.2-2.2-2.2H-299.3z"/>
	<path d="M-277.3,425.7h-4.6c-2.9,0-5.2-2.3-5.2-5.2v-17.2c0-2.9,2.3-5.2,5.2-5.2h4.6c2.9,0,5.2,2.3,5.2,5.2v17.2
		C-272.1,423.4-274.5,425.7-277.3,425.7z M-281.9,401.1c-1.2,0-2.2,1-2.2,2.2v17.2c0,1.2,1,2.2,2.2,2.2h4.6c1.2,0,2.2-1,2.2-2.2
		v-17.2c0-1.2-1-2.2-2.2-2.2H-281.9z"/>
	<path d="M-277.3,443h-4.6c-2.9,0-5.2-2.3-5.2-5.2v-4.6c0-2.9,2.3-5.2,5.2-5.2h4.6c2.9,0,5.2,2.3,5.2,5.2v4.6
		C-272.1,440.7-274.5,443-277.3,443z M-281.9,431.1c-1.2,0-2.2,1-2.2,2.2v4.6c0,1.2,1,2.2,2.2,2.2h4.6c1.2,0,2.2-1,2.2-2.2v-4.6
		c0-1.2-1-2.2-2.2-2.2H-281.9z"/>
	<path d="M-260,443h-4.6c-2.9,0-5.2-2.3-5.2-5.2v-17.2c0-2.9,2.3-5.2,5.2-5.2h4.6c2.9,0,5.2,2.3,5.2,5.2v17.2
		C-254.9,440.7-257.3,443-260,443z M-264.6,418.4c-1.2,0-2.2,1-2.2,2.2v17.2c0,1.2,1,2.2,2.2,2.2h4.6c1.2,0,2.2-1,2.2-2.2v-17.2
		c0-1.2-1-2.2-2.2-2.2H-264.6z"/>
	<path d="M-260,413.1h-4.6c-2.9,0-5.2-2.3-5.2-5.2v-4.6c0-2.9,2.3-5.2,5.2-5.2h4.6c2.9,0,5.2,2.3,5.2,5.2v4.6
		C-254.9,410.8-257.3,413.1-260,413.1z M-264.6,401.1c-1.2,0-2.2,1-2.2,2.2v4.6c0,1.2,1,2.2,2.2,2.2h4.6c1.2,0,2.2-1,2.2-2.2v-4.6
		c0-1.2-1-2.2-2.2-2.2H-264.6z"/>
</g>
</svg>
