<?xml version="1.0" encoding="utf-8"?>
<!-- Generator: Adobe Illustrator 19.0.0, SVG Export Plug-In . SVG Version: 6.00 Build 0)  -->
<svg version="1.1" id="Layer_1" xmlns="http://www.w3.org/2000/svg" xmlns:xlink="http://www.w3.org/1999/xlink" x="0px" y="0px"
	 viewBox="-305.3 369.6 102.7 102.7" style="enable-background:new -305.3 369.6 102.7 102.7;" xml:space="preserve">
<path d="M-231.9,410.8v-0.9c0-4.7-1.8-4.5-6.5-4.5h-15.4c-2.8,0-3.1,0.3-3.1-2.6v0.4c0-4.7-3.8-6.5-8.5-6.5h-11.6
	c-4.7,0-5.5,2.8-5.5,5.5v35.1c0,6.4,2.6,8.2,5.5,8.2l0,0h44.3c4.7,0,7.5-3.8,7.5-8.5v-17.7C-225.3,414.8-227.7,411.2-231.9,410.8z
	 M-277.1,442.1c-2.8,0-2.1-2.3-2.1-7.1v-31.8c0-1.5-0.1-3.1,3.1-3.1h10.6c2.8,0,5.1,0.3,5.1,3.1c0,4.7,1.8,5.5,6.5,5.5h15.4
	c2.6,0,3.1-0.2,3.1,1.1v0.9h-31.1c-4.7,0-8.5,3.8-8.5,8.5V437C-275,439.8-274.3,442.1-277.1,442.1L-277.1,442.1z M-228.7,437
	c0,2.8-1.3,5.1-4.1,5.1h-39.5c1.1-1.5,0.7-3.2,0.7-5.1v-17.7c0-2.8,2.3-5.1,5.1-5.1h33.6c2.8,0,4.1,2.3,4.1,5.1V437z"/>
<rect x="-264.7" y="419.4" width="29" height="3.4"/>
<rect x="-264.7" y="433.3" width="29" height="3.4"/>
<g>
	<rect x="-264.7" y="426.3" width="29" height="3.4"/>
</g>
</svg>
