<?xml version="1.0" encoding="utf-8"?>
<!-- Generator: Adobe Illustrator 19.0.0, SVG Export Plug-In . SVG Version: 6.00 Build 0)  -->
<svg version="1.1" id="Layer_1" xmlns="http://www.w3.org/2000/svg" xmlns:xlink="http://www.w3.org/1999/xlink" x="0px" y="0px"
	 viewBox="-343 381.9 77.9 77.9" style="enable-background:new -343 381.9 77.9 77.9;" xml:space="preserve">
<g>
	<g>
		<path d="M-319.7,433.5h-5c-0.8,0-1.5-0.7-1.5-1.5v-16.2c0-0.8,0.7-1.5,1.5-1.5h3.2c-0.2-0.3-0.3-3-0.3-3.4h-5.2
			c-1.4,0-2.6,1.2-2.6,2.6v20.8c0,1.4,1.2,2.6,2.6,2.6h7.6C-319.6,436.6-319.7,433.9-319.7,433.5z"/>
	</g>
	<g>
		<path d="M-279.8,411h-5.5c0.1,0.3,0.1,3.1,0,3.4h3.1c0.8,0,1.5,0.7,1.5,1.5V432c0,0.8-0.7,1.5-1.5,1.5h-6.2c0.2,0.3,0.2,3,0.2,3.4
			h8.3c1.4,0,2.6-1.2,2.6-2.6v-20.8C-277.2,412.1-278.4,411-279.8,411z"/>
	</g>
</g>
<g>
	<g>
		<path d="M-320.6,420.7c-0.6,0-1.1-0.3-1.5-0.8l0,0c-0.3-0.5-0.5-1.1-0.5-1.8l0,0v-20.8c0-0.7,0.2-1.3,0.5-1.8l0,0
			c0.3-0.5,0.9-0.8,1.5-0.8l0,0h34.1c0.6,0,1.1,0.3,1.5,0.8l0,0c0.3,0.5,0.5,1.1,0.5,1.8l0,0v20.3h0v0.5c0,0.7-0.2,1.3-0.5,1.8l0,0
			c-0.3,0.5-0.9,0.8-1.5,0.8l0,0L-320.6,420.7L-320.6,420.7z M-318.8,398.5c-0.2,0.3-0.3,0.7-0.3,1.1l0,0v16.2
			c0,0.5,0.1,0.9,0.3,1.1l0,0c0.2,0.3,0.4,0.4,0.6,0.4l0,0h29.4c0.2,0,0.4-0.1,0.6-0.4l0,0c0.2-0.2,0.3-0.6,0.3-1.1l0,0v-16.2
			c0-0.5-0.1-0.9-0.3-1.1l0,0c-0.2-0.3-0.4-0.4-0.6-0.4l0,0h-29.4c0,0,0,0,0,0l0,0C-318.4,398.1-318.6,398.2-318.8,398.5
			L-318.8,398.5z"/>
	</g>
</g>
<g>
	<g>
		<path d="M-320.3,444.1v-13.6c0-1,0.8-1.9,1.8-1.9l0,0h29.2c1,0,1.8,0.9,1.8,1.9l0,0v13.6c0,1-0.8,1.9-1.8,1.9l0,0h-29.2
			C-319.5,446-320.3,445.1-320.3,444.1L-320.3,444.1z M-316.9,432.8v8.9c0,0.5,0.3,0.8,0.7,0.8l0,0l24.5,0c0.4,0,0.7-0.3,0.7-0.8
			l0,0v-8.9c0-0.5-0.3-0.8-0.7-0.8l0,0h-24.5C-316.5,432-316.9,432.4-316.9,432.8L-316.9,432.8z"/>
	</g>
</g>
<g>
	<g>
		<polygon points="-316.2,406.6 -316.2,403.2 -290.9,403.2 -290.9,406.6 		"/>
	</g>
</g>
<g>
	<g>
		<polygon points="-316.2,412.2 -316.2,408.8 -290.9,408.8 -290.9,412.2 		"/>
	</g>
</g>
</svg>
