<?xml version="1.0" encoding="utf-8"?>
<!-- Generator: Adobe Illustrator 19.0.0, SVG Export Plug-In . SVG Version: 6.00 Build 0)  -->
<svg version="1.1" id="Layer_1" xmlns="http://www.w3.org/2000/svg" xmlns:xlink="http://www.w3.org/1999/xlink" x="0px" y="0px"
	 viewBox="76 366.9 108 108" style="enable-background:new 76 366.9 108 108;" xml:space="preserve">
<g>
	<path d="M111.8,424.2h1.3c0.1,0,0.2,0,0.3,0.1c0.1,0.1,0.1,0.1,0.2,0.2l1,3.7c0.1,0.2,0.1,0.4,0.1,0.6c0,0.2,0.1,0.4,0.1,0.6
		c0.1-0.2,0.1-0.4,0.2-0.6c0.1-0.2,0.1-0.4,0.2-0.6l1.2-3.8c0-0.1,0.1-0.2,0.2-0.2c0.1-0.1,0.2-0.1,0.3-0.1h0.7c0.1,0,0.2,0,0.3,0.1
		c0.1,0.1,0.1,0.1,0.2,0.2l1.1,3.8c0.1,0.2,0.1,0.4,0.2,0.6c0.1,0.2,0.1,0.4,0.1,0.6c0-0.2,0.1-0.4,0.1-0.6c0-0.2,0.1-0.4,0.1-0.6
		l1-3.7c0-0.1,0.1-0.2,0.2-0.2c0.1-0.1,0.2-0.1,0.3-0.1h1.3l-2.2,7H119c-0.2,0-0.3-0.1-0.3-0.3l-1.3-4c-0.1-0.3-0.2-0.5-0.2-0.8
		c-0.1,0.3-0.1,0.5-0.2,0.8l-1.3,4c-0.1,0.2-0.2,0.3-0.4,0.3h-1.3L111.8,424.2z"/>
	<path d="M122.8,424.2h1.3c0.1,0,0.2,0,0.3,0.1c0.1,0.1,0.1,0.1,0.2,0.2l1,3.7c0.1,0.2,0.1,0.4,0.1,0.6c0,0.2,0.1,0.4,0.1,0.6
		c0.1-0.2,0.1-0.4,0.2-0.6c0.1-0.2,0.1-0.4,0.2-0.6l1.2-3.8c0-0.1,0.1-0.2,0.2-0.2c0.1-0.1,0.2-0.1,0.3-0.1h0.7c0.1,0,0.2,0,0.3,0.1
		c0.1,0.1,0.1,0.1,0.2,0.2l1.1,3.8c0.1,0.2,0.1,0.4,0.2,0.6c0.1,0.2,0.1,0.4,0.1,0.6c0-0.2,0.1-0.4,0.1-0.6c0-0.2,0.1-0.4,0.1-0.6
		l1-3.7c0-0.1,0.1-0.2,0.2-0.2c0.1-0.1,0.2-0.1,0.3-0.1h1.3l-2.2,7h-1.4c-0.2,0-0.3-0.1-0.3-0.3l-1.3-4c-0.1-0.3-0.2-0.5-0.2-0.8
		c-0.1,0.3-0.1,0.5-0.2,0.8l-1.3,4c-0.1,0.2-0.2,0.3-0.4,0.3H125L122.8,424.2z"/>
	<path d="M133.8,424.2h1.3c0.1,0,0.2,0,0.3,0.1c0.1,0.1,0.1,0.1,0.2,0.2l1,3.7c0.1,0.2,0.1,0.4,0.1,0.6c0,0.2,0.1,0.4,0.1,0.6
		c0.1-0.2,0.1-0.4,0.2-0.6c0.1-0.2,0.1-0.4,0.2-0.6l1.2-3.8c0-0.1,0.1-0.2,0.2-0.2c0.1-0.1,0.2-0.1,0.3-0.1h0.7c0.1,0,0.2,0,0.3,0.1
		c0.1,0.1,0.1,0.1,0.2,0.2l1.1,3.8c0.1,0.2,0.1,0.4,0.2,0.6c0.1,0.2,0.1,0.4,0.1,0.6c0-0.2,0.1-0.4,0.1-0.6c0-0.2,0.1-0.4,0.1-0.6
		l1-3.7c0-0.1,0.1-0.2,0.2-0.2c0.1-0.1,0.2-0.1,0.3-0.1h1.3l-2.2,7h-1.4c-0.2,0-0.3-0.1-0.3-0.3l-1.3-4c-0.1-0.3-0.2-0.5-0.2-0.8
		c-0.1,0.3-0.1,0.5-0.2,0.8l-1.3,4c-0.1,0.2-0.2,0.3-0.4,0.3H136L133.8,424.2z"/>
</g>
<path d="M133.8,406.4c8.1,0,11.4,4.8,11.4,10.8c0,0,0,0.1,0,0.1c0,0.1,0,0.2,0,0.2l0,2.4l1.7,0c4.9,0,8.6,2.6,8.6,8
	c0,4-3.1,7.3-7.1,7.3l-0.4,0h-31.6c-4.8,0-9.9-1.2-9.9-8.1c0-3.8,4-6.5,7.3-7.6c0,0,0.4-6,4.9-6.7c0.7-0.1,1.5,0.2,2.2,0.5l2.1,1
	l1-1.8C125.7,408.9,129.6,406.4,133.8,406.4 M134.2,403c-5.7,0-10.7,2.4-13,7.2c-1-0.5-2.1-0.8-3.3-0.8c-3.7,0-6.7,4.7-7.3,8.2
	c-4.4,1.5-7.5,5.6-7.5,10.5c0,6.2,5,10.6,11.1,10.6l34.4,0l0,0c5.6,0,10.2-4.1,10.2-9.7c0-7-4-12.2-10.2-12.2c0-0.1,0-0.3,0-0.4
	C148.6,408.4,142.1,403,134.2,403L134.2,403z"/>
</svg>
