<svg id="Слой_1" data-name="Слой 1" xmlns="http://www.w3.org/2000/svg" viewBox="0 0 46 39"><defs><style>.cls-1{fill:#d22425;}.cls-2{fill:none;stroke:#d22425;stroke-miterlimit:10;stroke-width:2px;}</style></defs><title>Монтажная область 1</title><path class="cls-1" d="M31,11.85l-1.61,5c-.26.8-.57,1.69-.84,2.61-.13.46-.28,1-.4,1.48s-.23,1-.32,1.58a15.5,15.5,0,0,0-.19,1.68,6.55,6.55,0,0,0,.08,1.6.92.92,0,0,0,.56.76,2.3,2.3,0,0,0,1.38,0,6.18,6.18,0,0,0,3-2.24,16.48,16.48,0,0,0,2.29-3.85A11.84,11.84,0,0,0,35.73,16a12.38,12.38,0,0,0-.91-4.73,12.65,12.65,0,0,0-1.16-2.2c-.11-.18-.24-.35-.36-.52l-.17-.23-.22-.27c-.15-.2-.27-.3-.4-.45l-.43-.42A9.86,9.86,0,0,0,27.66,5a13.29,13.29,0,0,0-5.2-.15A11.65,11.65,0,0,0,20,5.5c-.19.07-.41.18-.57.25l-.64.33c-.39.22-.75.42-1.13.67A17.52,17.52,0,0,0,11,15a18.94,18.94,0,0,0-.82,2.53,15,15,0,0,0-.37,2.57,15.24,15.24,0,0,0,.5,5.05,12.8,12.8,0,0,0,2.16,4.3,12.65,12.65,0,0,0,1.65,1.74A12.31,12.31,0,0,0,16,32.54a15.11,15.11,0,0,0,8.32,2.06,14.94,14.94,0,0,0,7-2,16,16,0,0,0,2.44-1.85,18.92,18.92,0,0,0,1.76-1.9,23.06,23.06,0,0,0,2.09-3.1l.66-1.2.48.14a8.5,8.5,0,0,1-.22,1.42A12.39,12.39,0,0,1,37,29.87,12.58,12.58,0,0,1,35.1,32.2a15.59,15.59,0,0,1-2.75,2.14,17,17,0,0,1-7.95,2.35,17.22,17.22,0,0,1-9.51-2.29,14.47,14.47,0,0,1-2.2-1.57,15.09,15.09,0,0,1-1.9-2,14.92,14.92,0,0,1-2.63-5.09A17.49,17.49,0,0,1,7.55,20,17.27,17.27,0,0,1,8,17a21.23,21.23,0,0,1,.9-2.85,19.54,19.54,0,0,1,7.47-9.38c.42-.28.89-.55,1.35-.8l.64-.33c.28-.13.49-.23.75-.33a14,14,0,0,1,3-.84,15.65,15.65,0,0,1,6.14.19,12.22,12.22,0,0,1,5.47,2.82c.19.18.37.36.56.55s.39.42.52.59l.22.27.24.32c.15.2.29.4.42.61A15,15,0,0,1,37,10.42,14.74,14.74,0,0,1,38.08,16,13.7,13.7,0,0,1,37,21.46a18.74,18.74,0,0,1-2.67,4.36,11.6,11.6,0,0,1-1.81,1.77,7.66,7.66,0,0,1-1.1.71c-.2.1-.47.22-.67.3l-.26.08-.19.06-.16,0a4.43,4.43,0,0,1-2.77-.14,3.07,3.07,0,0,1-1.24-1,3.19,3.19,0,0,1-.38-.66,3.75,3.75,0,0,1-.14-.39c0-.13,0-.18-.07-.27a8.38,8.38,0,0,1-.12-2.22,17.65,17.65,0,0,1,.23-1.92,36.08,36.08,0,0,1,1.72-6l1.69-5Z"/><path class="cls-2" d="M27.8,18.29c0-.42,1.32-4.79-1.68-6.21-1.88-.89-4,.21-5.42,1.54a13.79,13.79,0,0,0-4.5,8.29c-.18,1.36-.26,4,1.42,5.21a4.43,4.43,0,0,0,3.67.25c3.85-1.1,6.1-8,6.51-9.08"/></svg>